
<svg width="1200" height="800" viewBox="0 0 1200 800" xmlns="http://www.w3.org/2000/svg">
  <defs>
    <linearGradient id="skyGradient" x1="0%" y1="0%" x2="0%" y2="100%">
      <stop offset="0%" style="stop-color:#87CEEB;stop-opacity:1" />
      <stop offset="100%" style="stop-color:#E0F6FF;stop-opacity:1" />
    </linearGradient>
    <linearGradient id="mountainGradient" x1="0%" y1="0%" x2="0%" y2="100%">
      <stop offset="0%" style="stop-color:#2d5016;stop-opacity:1" />
      <stop offset="100%" style="stop-color:#4a7c59;stop-opacity:1" />
    </linearGradient>
    <linearGradient id="trailGradient" x1="0%" y1="0%" x2="100%" y2="0%">
      <stop offset="0%" style="stop-color:#8B4513;stop-opacity:1" />
      <stop offset="100%" style="stop-color:#A0522D;stop-opacity:1" />
    </linearGradient>
  </defs>
  
  <!-- 空 -->
  <rect width="1200" height="800" fill="url(#skyGradient)"/>
  
  <!-- 雲 -->
  <ellipse cx="200" cy="150" rx="60" ry="30" fill="white" opacity="0.8"/>
  <ellipse cx="230" cy="140" rx="40" ry="25" fill="white" opacity="0.8"/>
  <ellipse cx="180" cy="160" rx="45" ry="20" fill="white" opacity="0.8"/>
  
  <ellipse cx="800" cy="100" rx="50" ry="25" fill="white" opacity="0.7"/>
  <ellipse cx="820" cy="95" rx="35" ry="20" fill="white" opacity="0.7"/>
  
  <!-- 遠景の山々 -->
  <polygon points="0,500 200,300 400,400 600,250 800,350 1000,280 1200,400 1200,800 0,800" 
           fill="#6B8E6B" opacity="0.6"/>
  
  <!-- 中景の山 -->
  <polygon points="100,600 300,400 500,450 700,350 900,380 1100,320 1200,400 1200,800 0,800" 
           fill="#4a7c59" opacity="0.8"/>
  
  <!-- 前景の山 -->
  <polygon points="0,700 250,500 450,550 650,480 850,520 1050,460 1200,500 1200,800 0,800" 
           fill="url(#mountainGradient)"/>
  
  <!-- ハイキング道 -->
  <path d="M 50 750 Q 200 650 350 680 T 650 620 Q 800 610 950 650 T 1200 680" 
        stroke="url(#trailGradient)" stroke-width="15" fill="none" opacity="0.7"/>
  
  <!-- 木々 -->
  <circle cx="150" cy="620" r="25" fill="#2d5016"/>
  <rect x="145" y="620" width="10" height="40" fill="#8B4513"/>
  
  <circle cx="320" cy="580" r="30" fill="#2d5016"/>
  <rect x="315" y="580" width="10" height="45" fill="#8B4513"/>
  
  <circle cx="750" cy="540" r="35" fill="#2d5016"/>
  <rect x="745" y="540" width="10" height="50" fill="#8B4513"/>
  
  <!-- ハイカーシルエット -->
  <g transform="translate(400, 650)">
    <circle cx="0" cy="-30" r="8" fill="#2c3e50"/>
    <rect x="-5" y="-22" width="10" height="25" fill="#3498db"/>
    <rect x="-3" y="3" width="6" height="20" fill="#2c3e50"/>
    <rect x="-8" y="-15" width="16" height="8" fill="#e74c3c"/>
    <circle cx="6" cy="-18" r="4" fill="#8B4513"/>
  </g>
  
  <!-- 太陽 -->
  <circle cx="1000" cy="150" r="40" fill="#FFD700" opacity="0.8"/>
  
  <!-- 鳥 -->
  <path d="M 600 200 Q 605 195 610 200 Q 605 205 600 200" stroke="#2c3e50" stroke-width="2" fill="none"/>
  <path d="M 650 180 Q 655 175 660 180 Q 655 185 650 180" stroke="#2c3e50" stroke-width="2" fill="none"/>
</svg>